<?xml version="1.0" encoding="UTF-8"?>
<svg id="Layer_1" xmlns="http://www.w3.org/2000/svg" version="1.1" viewBox="0 0 38.78 44.8">
  <!-- Generator: Adobe Illustrator 30.5.1, SVG Export Plug-In . SVG Version: 2.1.4 Build 3)  -->
  <defs>
    <style>
      .st0 {
        fill: none;
        stroke: #000;
        stroke-miterlimit: 10;
      }
    </style>
  </defs>
  <circle class="st0" cx="17.26" cy="26.45" r="13.25"/>
  <path class="st0" d="M38.27,16.73c0-5.8-4.7-10.5-10.5-10.5-.68,0-1.35.07-2,.2-2.42-2.65-5.9-4.33-9.77-4.33-7.32,0-13.25,5.93-13.25,13.25,0,2.53.72,4.89,1.96,6.9,1.76-5.26,6.71-9.05,12.56-9.05,7.32,0,13.25,5.93,13.25,13.25,0,.14-.02.28-.02.42,4.48-1.2,7.78-5.28,7.78-10.13h0Z"/>
  <path class="st0" d="M26.22,16.69s14.61-11.75,0-16.03c0,0,14.27.57,9.38,9.08"/>
  <path class="st0" d="M4.94,31.32s-2.84,7.06,4.44,12.42c0,0-15.71-3.75-5.33-18.31"/>
</svg>