<?xml version="1.0" encoding="UTF-8"?>
<svg id="Layer_1" xmlns="http://www.w3.org/2000/svg" version="1.1" viewBox="0 0 44.06 47.34">
  <!-- Generator: Adobe Illustrator 30.5.1, SVG Export Plug-In . SVG Version: 2.1.4 Build 3)  -->
  <defs>
    <style>
      .st0 {
        fill: #a91c2f;
      }
    </style>
  </defs>
  <g id="Layer_11" data-name="Layer_1">
    <g>
      <path class="st0" d="M42.26,47.25c-2.33,0-4.84-1.49-7.68-4.54-2.9-2.74-5.22-6.62-6.89-11.51-1.13-3.12-2.16-7.22-3.07-12.2-3.07.51-6.27,1.16-9.5,1.93.07.02.13.04.2.06.77.41,1.14.8,1.14,1.17,0,.33-.05.66-.16.98-.1.64-.15,1.08-.15,1.48l.05,2.76h.03l.82-.31c1.19-.43,1.98-.71,2.31-.88.26-.07.44-.13.57-.17.14-.04.18-.06.22-.06.08,0,.31.03,1.44.32.87.46,1.3.85,1.3,1.17,0,.45-.49.67-1.03.85l-2.58.48c-.41.1-.88.16-1.33.16-.66,0-1.22-.06-1.76-.18l.1,6.74c1.58-.46,3.25-.97,5.02-1.52l.75-.21c1.05-.3,1.63-.47,1.91-.47s.54.18.54.7c0,.29-.32.48-.75.69-2.32,1.1-5.61,2.53-9.8,4.24-2.09.84-4.59,1.95-8.37,3.71-.56.28-.92.43-1.26.43-.75,0-1.71-.47-2.85-1.39-.93-.82-1.36-1.46-1.36-2.04,0-.23.28-.28.69-.33,1.03-.05,2.02-.21,3.02-.47.66-.14,1.36-.32,2.12-.52.36-.09.73-.19,1.12-.29l-1.14-8.48c-.05-.5-.23-1.01-.51-1.53-.21-.2-.33-.45-.33-.69,0-.46.19-1.01,1.12-1.01.6,0,1.3.17,2.35.58.76.41,1.13.8,1.13,1.22,0,.31-.05.58-.16.93-.1.6-.15,1.12-.15,1.53l.41,6.7c1.28-.32,2.55-.67,3.78-1.03l-.88-12.62c-.05-.48-.22-1-.51-1.58-.12-.12-.21-.25-.25-.38-.48.11-.95.23-1.42.35-.4.1-.79.21-1.18.3-2.12.64-3.47.95-4.11.95s-1.51-.27-2.67-.8c-.91-.48-1.38-.99-1.38-1.48,0-.39.5-.63,1.68-.8,4.72-.54,11.88-1.76,21.29-3.64-.52-2.74-.99-5.68-1.39-8.73-.26-2.15-.68-3.81-1.25-4.93-.36-.67-.54-1.22-.54-1.68,0-.72.38-1.07,1.17-1.07.62,0,1.64.34,3.19,1.06.82.46,1.22.98,1.22,1.53,0,.32-.05.81-.16,1.43-.05,1.34-.05,2.28-.05,2.86,0,2.89.24,5.9.71,8.96.14-.03.27-.06.4-.09.21-.04.41-.08.61-.14l1.43-.26c2.04-.37,3.17-.58,3.52-.58.71,0,1.48.27,2.14.53.68.45,1.02.91,1.02,1.37,0,.39-.29.86-1.7.86-1.89.18-4.39.43-7.03.87.71,4.27,1.74,8.09,3.06,11.37,1.34,3.5,3.05,6.44,5.11,8.76,1.72,2.09,3.04,3.1,4.04,3.1.17,0,.63-.19,1.24-1.96l1.15-4.18c.27-1.09.45-1.09.54-1.09.25,0,.39.34.39.96.16,4.77.36,7.66.62,8.82l.32,1.41c0,.71-.29,1.51-1.69,1.51h.05ZM10.27,14.64c-1.46,0-2.28-.13-2.74-.44-.57-.4-.84-.74-.84-1.05,0-.09,0-.37,1.21-.54,1.49-.21,3.15-.62,5.06-1.25,1.58-.37,2.63-.82,3.23-1.14.32-.19.51-.28.64-.28.54,0,1.22.2,2.15.64.57.28.86.64.86,1.06s-.32.66-.64.84c-.58.32-1.76.68-3.59,1.11-2.48.67-4.42,1.05-5.32,1.05h-.02ZM36.5,12.49c-1.01,0-2.31-.74-3.75-2.13-1.81-1.7-2.55-2.58-2.55-3.02,0-.35.39-.42.52-.44h0c1,0,2.2.18,3.91.58,1.61.52,2.53.93,2.99,1.34.52.58.77,1.07.77,1.51,0,1.42-.66,2.17-1.91,2.17h0Z"/>
      <path class="st0" d="M22.15.27c.63,0,1.68.37,3.14,1.05.73.42,1.15.89,1.15,1.41,0,.31-.05.79-.16,1.41-.05,1.36-.05,2.3-.05,2.88,0,2.72.21,5.76.73,9.11.42-.1.79-.16,1.15-.26,2.88-.52,4.5-.84,4.92-.84.63,0,1.31.21,2.09.52.63.42.94.84.94,1.26,0,.47-.52.73-1.57.73-2.25.21-4.66.47-7.17.89.73,4.45,1.78,8.27,3.09,11.52,1.36,3.56,3.09,6.49,5.13,8.8,1.73,2.09,3.09,3.14,4.14,3.14.42,0,.89-.68,1.36-2.04l1.15-4.19c.16-.63.31-.99.42-.99.16,0,.26.31.26.84.16,4.82.37,7.7.63,8.85l.32,1.41c0,.89-.52,1.36-1.57,1.36-2.3,0-4.82-1.52-7.59-4.5-2.88-2.72-5.18-6.54-6.86-11.47-1.1-3.04-2.15-7.12-3.09-12.3-3.19.52-6.54,1.2-10,2.04.21.1.37.16.58.21.68.37,1.05.73,1.05,1.05s-.05.63-.16.94c-.1.63-.16,1.1-.16,1.52l.05,2.93s.1-.05.16-.05c1.73-.63,2.77-.99,3.19-1.2.42-.1.68-.21.73-.21.1,0,.58.1,1.41.31.79.42,1.2.78,1.2,1.05,0,.32-.31.52-.94.73l-2.56.47c-.42.1-.89.16-1.31.16-.63,0-1.26-.05-1.88-.21l.1,7.07c1.62-.47,3.35-.99,5.18-1.57,1.47-.42,2.3-.68,2.62-.68.26,0,.42.21.42.58,0,.21-.26.37-.68.58-2.2,1.05-5.45,2.46-9.79,4.24-2.36.94-5.13,2.2-8.38,3.72-.52.26-.89.42-1.2.42-.73,0-1.68-.47-2.77-1.36-.89-.79-1.31-1.41-1.31-1.94,0-.1.16-.16.58-.21,1.05-.05,2.04-.21,3.04-.47,1-.21,2.09-.52,3.35-.84l-1.15-8.59c-.05-.47-.21-1-.52-1.57-.21-.21-.31-.42-.31-.63,0-.58.31-.89.99-.89.63,0,1.36.21,2.3.58.68.37,1.05.73,1.05,1.1,0,.31-.05.58-.16.89-.1.63-.16,1.15-.16,1.57l.42,6.86c1.26-.31,2.62-.68,4.03-1.1l-.89-12.72c-.05-.47-.21-.99-.52-1.62-.21-.21-.26-.37-.26-.47-.94.21-1.83.47-2.72.68-2.09.63-3.46.94-4.08.94-.58,0-1.47-.26-2.62-.79-.89-.47-1.31-.94-1.31-1.36,0-.31.52-.52,1.57-.68,4.61-.52,11.73-1.73,21.41-3.66-.52-2.72-1-5.65-1.41-8.85-.26-2.15-.68-3.82-1.26-4.97-.37-.68-.52-1.2-.52-1.62,0-.63.31-.94,1.05-.94M30.74,7.02c1.05,0,2.3.21,3.87.58,1.47.47,2.46.89,2.93,1.31.47.52.73.99.73,1.41,0,1.36-.63,2.04-1.78,2.04-.94,0-2.2-.68-3.66-2.09-1.68-1.57-2.51-2.51-2.51-2.93,0-.16.11-.26.42-.31M16.81,10.06c.52,0,1.2.21,2.09.63.52.26.79.58.79.94,0,.31-.21.52-.58.73-.58.31-1.78.68-3.56,1.1-2.72.73-4.5,1.05-5.29,1.05-1.31,0-2.2-.1-2.67-.42-.52-.37-.79-.68-.79-.94,0-.16.37-.31,1.1-.42,1.52-.21,3.19-.63,5.08-1.26,1.36-.31,2.46-.73,3.25-1.15.26-.16.47-.26.58-.26M22.15.02c-1.07,0-1.3.65-1.3,1.19,0,.48.18,1.05.55,1.74.55,1.11.97,2.75,1.23,4.89.4,3.03.86,5.93,1.37,8.62-9.34,1.86-16.46,3.08-21.15,3.61-.94.14-1.79.35-1.79.93,0,.54.49,1.08,1.44,1.58,1.19.54,2.11.81,2.73.81.66,0,2.02-.31,4.16-.95.38-.09.77-.19,1.17-.3.43-.11.86-.22,1.3-.33.05.11.13.21.23.32.27.55.43,1.04.48,1.5l.88,12.51c-1.16.34-2.34.66-3.54.97l-.4-6.56c0-.39.05-.9.15-1.51.11-.32.16-.61.16-.93,0-.46-.39-.89-1.18-1.32-1.1-.43-1.81-.61-2.42-.61-.8,0-1.24.4-1.24,1.14,0,.27.12.53.36.78.27.49.43.98.48,1.45l1.12,8.37c-.36.09-.7.18-1.04.27-.74.19-1.44.38-2.09.51-1.01.26-1.98.42-3,.47-.37.05-.81.1-.81.46,0,.61.44,1.28,1.39,2.12,1.17.95,2.16,1.42,2.94,1.42.36,0,.74-.16,1.32-.45,3.77-1.76,6.27-2.87,8.36-3.71,4.2-1.72,7.49-3.15,9.81-4.25.39-.19.82-.41.82-.8,0-.61-.36-.83-.67-.83s-.88.17-1.95.48l-.73.21c-1.7.53-3.33,1.03-4.87,1.48l-.1-6.42c.5.1,1.03.15,1.63.15.46,0,.95-.06,1.37-.16l2.55-.47c.61-.2,1.15-.45,1.15-.98,0-.24-.14-.63-1.34-1.27h-.03l-.03-.02c-1.29-.32-1.41-.32-1.47-.32s-.12.02-.26.06c-.12.04-.31.1-.54.15h-.03l-.02.02c-.33.17-1.12.45-2.3.88l-.69.25-.05-2.59c0-.39.05-.83.15-1.47.1-.3.16-.64.16-.98,0-.4-.35-.8-1.05-1.2,3.05-.72,6.07-1.33,8.98-1.82.91,4.94,1.93,9.01,3.06,12.1,1.67,4.91,4,8.8,6.92,11.56,2.86,3.07,5.4,4.57,7.76,4.57,1.17,0,1.82-.57,1.82-1.61v-.05l-.32-1.41c-.26-1.14-.47-4.1-.62-8.8,0-.89-.28-1.08-.51-1.08-.18,0-.39.09-.66,1.18l-1.15,4.18c-.62,1.81-1.07,1.86-1.12,1.86-.95,0-2.27-1.03-3.94-3.05-2.05-2.31-3.76-5.24-5.09-8.73-1.31-3.24-2.33-7.01-3.04-11.22,2.59-.42,5.04-.67,6.91-.85h0c1.48,0,1.79-.53,1.79-.98,0-.51-.35-1-1.05-1.46h-.02l-.02-.02c-.67-.27-1.45-.54-2.19-.54-.37,0-1.49.21-3.54.58l-1.42.26c-.22.06-.42.1-.63.15-.09.02-.18.04-.27.06-.46-3.01-.69-5.97-.69-8.81,0-.57,0-1.51.05-2.87.1-.62.16-1.09.16-1.42,0-.6-.43-1.15-1.28-1.63-1.59-.74-2.62-1.08-3.26-1.08h0v.02ZM30.74,6.77h-.04c-.42.07-.63.26-.63.56,0,.42.43,1.09,2.59,3.11,1.47,1.41,2.79,2.16,3.84,2.16,1.31,0,2.03-.81,2.03-2.29,0-.47-.26-.98-.8-1.58-.49-.44-1.43-.86-3.04-1.38-1.75-.41-2.96-.59-3.95-.59h0ZM16.81,9.81c-.15,0-.35.09-.7.3-.58.31-1.62.76-3.17,1.12-1.92.64-3.57,1.05-5.06,1.25-.91.13-1.32.34-1.32.67,0,.36.28.72.89,1.15.49.33,1.33.46,2.81.46.91,0,2.86-.38,5.35-1.06,1.84-.43,3.03-.8,3.62-1.12.33-.19.71-.47.71-.95s-.31-.86-.92-1.17c-.95-.45-1.65-.65-2.21-.65h0Z"/>
    </g>
  </g>
</svg>